<svg width="17" height="17" xmlns="http://www.w3.org/2000/svg" xmlns:xlink="http://www.w3.org/1999/xlink" xml:space="preserve" overflow="hidden"><g transform="translate(-631 -351)"><path d="M635.343 351 642.945 351C645.716 351 647.296 352.564 647.296 355.343L647.296 362.953C647.296 365.716 645.724 367.296 642.953 367.296L635.343 367.296C632.564 367.296 631 365.716 631 362.953L631 355.343C631 352.564 632.564 351 635.343 351ZM639.816 359.824 642.13 359.824C642.505 359.816 642.807 359.515 642.807 359.14 642.807 358.765 642.505 358.464 642.13 358.464L639.816 358.464 639.816 356.166C639.816 355.791 639.515 355.49 639.14 355.49 638.765 355.49 638.464 355.791 638.464 356.166L638.464 358.464 636.158 358.464C635.979 358.464 635.807 358.537 635.677 358.659 635.555 358.79 635.481 358.96 635.481 359.14 635.481 359.515 635.783 359.816 636.158 359.824L638.464 359.824 638.464 362.13C638.464 362.505 638.765 362.807 639.14 362.807 639.515 362.807 639.816 362.505 639.816 362.13L639.816 359.824Z" stroke="#E97132" stroke-width="1.33333" fill="#FFFFFF" fill-rule="evenodd"/></g></svg>