<svg width="20" height="20" xmlns="http://www.w3.org/2000/svg" xmlns:xlink="http://www.w3.org/1999/xlink" xml:space="preserve" overflow="hidden"><defs><clipPath id="clip0"><rect x="630" y="350" width="20" height="20"/></clipPath></defs><g clip-path="url(#clip0)" transform="translate(-630 -350)"><path d="M642.793 353.328C642.617 353.395 642.5 353.563 642.5 353.75 642.5 353.938 642.617 354.106 642.793 354.172L645 355 645.828 357.207C645.894 357.383 646.062 357.5 646.25 357.5 646.438 357.5 646.605 357.383 646.672 357.207L647.5 355 649.707 354.172C649.883 354.106 650 353.938 650 353.75 650 353.563 649.883 353.395 649.707 353.328L647.5 352.5 646.672 350.293C646.605 350.117 646.438 350 646.25 350 646.062 350 645.894 350.117 645.828 350.293L645 352.5 642.793 353.328ZM638.012 352.864C637.91 352.641 637.688 352.5 637.445 352.5 637.203 352.5 636.98 352.641 636.879 352.864L634.816 357.317 630.363 359.375C630.141 359.477 630 359.699 630 359.946 630 360.192 630.141 360.41 630.363 360.512L634.82 362.571 636.875 367.024C636.977 367.246 637.199 367.387 637.441 367.387 637.684 367.387 637.906 367.246 638.008 367.024L640.066 362.567 644.523 360.508C644.746 360.406 644.887 360.184 644.887 359.942 644.887 359.699 644.746 359.477 644.523 359.375L640.07 357.321 638.012 352.864ZM645 365 642.793 365.828C642.617 365.895 642.5 366.063 642.5 366.25 642.5 366.438 642.617 366.606 642.793 366.672L645 367.5 645.828 369.707C645.894 369.883 646.062 370 646.25 370 646.438 370 646.605 369.883 646.672 369.707L647.5 367.5 649.707 366.672C649.883 366.606 650 366.438 650 366.25 650 366.063 649.883 365.895 649.707 365.828L647.5 365 646.672 362.793C646.605 362.617 646.438 362.5 646.25 362.5 646.062 362.5 645.894 362.617 645.828 362.793L645 365Z" fill="#19181D"/></g></svg>